Coordinates
version=1
nRows=10
nColumns=28
inDegrees=yes

Units are S.I. units (second, meters, Newtons, ...)
Angles are in degrees.

endheader
time	pelvis_tilt	pelvis_list	pelvis_rotation	pelvis_tx	pelvis_ty	pelvis_tz	hip_flexion_r	hip_adduction_r	hip_rotation_r	knee_angle_r	ankle_angle_r	subtalar_angle_r	mtp_angle_r	hip_flexion_l	hip_adduction_l	hip_rotation_l	knee_angle_l	socket_flexion	socket_adduction	socket_rotation	socket_tx	socket_ty	socket_tz	foot_flex	lumbar_extension	lumbar_bending	lumbar_rotation
      0.95000000	      5.96793054	     -2.83928266	     -6.28107052	      0.42513494	      1.04185746	      0.34447861	     -4.24097461	      7.65859825	      3.13821474	    -14.57100980	     10.16687321	     -8.55990109	      5.39342513	      1.00617355	     -9.02944139	    -10.42556685	    -56.03591320	      0.00000000	      0.00000000	      0.00000000	      0.00000000	      0.00000000	      0.00000000	      0.05036476	    -13.26088493	      1.14623837	      8.28970311
      0.95416667	      6.14294093	     -2.68281695	     -6.69096042	      0.42967815	      1.04280894	      0.34520618	     -4.70194414	      7.31249123	      2.86429527	    -14.55277847	     10.09884961	     -7.44447402	      6.06240897	      1.31914002	     -8.87790760	    -10.68469804	    -55.55667753	      0.00000000	      0.00000000	      0.00000000	      0.00000000	      0.00000000	      0.00000000	     -0.01803706	    -13.53471544	      0.79369298	      9.10437910
      0.95833333	      6.09636892	     -2.55393860	     -6.89066377	      0.43451588	      1.04352592	      0.34564566	     -5.13593714	      7.09749450	      2.94377935	    -14.18117652	     10.17611681	     -7.28054204	      6.15676703	      1.90437543	     -8.73431832	    -10.56147044	    -55.04606425	      0.00000000	      0.00000000	      0.00000000	      0.00000000	      0.00000000	      0.00000000	      0.04861586	    -13.49691074	      0.63334958	      9.09074201
      0.96250000	      6.05495350	     -2.43413477	     -7.10028632	      0.43918613	      1.04417346	      0.34614742	     -5.54613040	      6.89024230	      2.97347391	    -13.82669097	     10.09927144	     -7.04708660	      6.22708836	      2.50424646	     -8.62843311	    -10.51698366	    -54.55131022	      0.00000000	      0.00000000	      0.00000000	      0.00000000	      0.00000000	      0.00000000	     -0.00032353	    -13.50360373	      0.45388779	      9.14724602
      0.96666667	      6.01406500	     -2.32781279	     -7.31385050	      0.44390322	      1.04477996	      0.34665632	     -5.95782640	      6.69476492	      3.00106898	    -13.47962489	      9.99485519	     -6.77570343	      6.30542987	      3.07559606	     -8.53126651	    -10.46286185	    -54.00058320	      0.00000000	      0.00000000	      0.00000000	      0.00000000	      0.00000000	      0.00000000	     -0.01054582	    -13.49314251	      0.27626281	      9.25915199
      0.97083333	      6.02343141	     -2.34707788	     -7.54320923	      0.44801783	      1.04530118	      0.34718310	     -6.24392036	      6.63495276	      2.94163198	    -13.46645928	      9.99206673	     -6.74654694	      6.31567533	      3.66337331	     -8.59725449	    -10.44381211	    -53.56540454	      0.00000000	      0.00000000	      0.00000000	      0.00000000	      0.00000000	      0.00000000	      0.02576219	    -13.67825796	      0.23600144	      9.27505223
      0.97500000	      5.92714030	     -2.18789932	     -7.73532619	      0.45316202	      1.04582797	      0.34759229	     -6.73467557	      6.37686631	      3.06290482	    -12.87104277	      9.87085330	     -6.35240922	      6.39081222	      4.20828939	     -8.41485789	    -10.33499922	    -52.83381706	      0.00000000	      0.00000000	      0.00000000	      0.00000000	      0.00000000	      0.00000000	     -0.04211912	    -13.51650039	      0.02938098	      9.46871703
      0.97916667	      5.88065871	     -2.09250968	     -7.93261400	      0.45778263	      1.04624013	      0.34814002	     -7.14680372	      6.19407613	      3.08385709	    -12.48124127	      9.71002164	     -5.96839589	      6.51116918	      4.78088687	     -8.35124788	    -10.32002811	    -52.23628222	      0.00000000	      0.00000000	      0.00000000	      0.00000000	      0.00000000	      0.00000000	     -0.07892015	    -13.51739223	     -0.17846945	      9.70478509
      0.98333333	      5.87522308	     -2.12462058	     -8.16111424	      0.46191421	      1.04660857	      0.34861842	     -7.41825615	      6.14751442	      3.03601329	    -12.47075662	      9.71077794	     -5.93199070	      6.52758932	      5.34096250	     -8.41495723	    -10.26222986	    -51.69753367	      0.00000000	      0.00000000	      0.00000000	      0.00000000	      0.00000000	      0.00000000	     -0.03860918	    -13.69204742	     -0.19733093	      9.73084792
      0.98750000	      5.82849384	     -1.96387796	     -8.32889196	      0.46709311	      1.04694931	      0.34892514	     -7.83390324	      5.82120910	      2.65954659	    -12.05813725	      9.24348227	     -4.82315930	      8.79099828	      5.79123347	     -8.21727036	    -10.14787530	    -50.85929214	      0.00000000	      0.00000000	      0.00000000	      0.00000000	      0.00000000	      0.00000000	     -0.15105706	    -13.57016556	     -0.43555157	     10.14611018
